<?xml version="1.0" encoding="utf-8"?>
<!-- Generator: Adobe Illustrator 25.1.0, SVG Export Plug-In . SVG Version: 6.00 Build 0)  -->
<svg version="1.1" id="Calque_1" xmlns="http://www.w3.org/2000/svg" xmlns:xlink="http://www.w3.org/1999/xlink" x="0px" y="0px"
	 viewBox="0 0 1366 768" style="enable-background:new 0 0 1366 768;" xml:space="preserve">
<style type="text/css">
	.st0{fill:#FAC1C1;}
	.st1{fill:#27345C;}
</style>
<g>
	<path class="st0" d="M507.25,309.1h28.69v99.76c0,5.82,0.54,10.75,1.6,14.83c1.07,4.08,2.65,7.39,4.75,9.94
		c2.1,2.56,4.7,4.42,7.83,5.59c3.14,1.18,6.71,1.75,10.78,1.75c2.99,0,5.45-0.24,7.41-0.74c1.96-0.49,3.54-0.74,4.74-0.74
		c1.93,0,3.4,0.49,4.42,1.44c1.04,0.97,1.67,2.21,1.87,3.77c0.21,2.84,0.47,5.68,0.75,8.52c0.28,2.84,0.54,5.68,0.75,8.5
		c-4.06,1-7.93,1.73-11.63,2.18c-3.7,0.47-7.46,0.69-11.3,0.69c-8.38,0-15.74-1.32-22.08-3.93c-6.32-2.63-11.61-6.39-15.83-11.27
		c-4.24-4.91-7.41-10.82-9.55-17.77c-2.14-6.96-3.21-14.75-3.21-23.4V309.1z"/>
	<ellipse class="st1" cx="522.47" cy="277.7" rx="16.26" ry="16.22"/>
	<rect x="588.96" y="309.46" class="st0" width="26.61" height="88.43"/>
	<ellipse class="st1" cx="603.01" cy="448.78" rx="16.26" ry="16.22"/>
	<rect x="525.39" y="331.53" class="st0" width="70.97" height="26.54"/>
</g>
</svg>
